<svg xmlns="http://www.w3.org/2000/svg" version="1.1" xmlns:xlink="http://www.w3.org/1999/xlink" xmlns:svgjs="http://svgjs.dev/svgjs" viewBox="0 0 800 800"><defs><filter id="uuunion-blur" x="-100%" y="-100%" width="400%" height="400%" color-interpolation-filters="sRGB">
        <feGaussianBlur in="SourceGraphic" stdDeviation="2.5 4.5" result="blur"></feGaussianBlur>
        <feDropShadow stdDeviation="12.307692307692308" in="blur" dx="10" dy="10" flood-color="hsl(0, 0%, 0%)" flood-opacity="0.25" x="0%" y="0%" width="100%" height="100%"></feDropShadow>
      </filter><filter id="uuunion-blur2" x="-100%" y="-100%" width="400%" height="400%" color-interpolation-filters="sRGB">
        <feGaussianBlur in="SourceGraphic" stdDeviation="2.5 4.5" result="blur"></feGaussianBlur>
        <feDropShadow stdDeviation="12.307692307692308" in="blur" dx="-10" dy="-10" flood-color="hsl(0, 0%, 0%)" flood-opacity="0.25" x="0%" y="0%" width="100%" height="100%"></feDropShadow>
      </filter><linearGradient gradientTransform="rotate(0, 0.5, 0.5)" x1="50%" y1="0%" x2="50%" y2="100%" id="uuunion-grad"><stop stop-color="hsl(265, 93%, 36%)" offset="10%"></stop><stop stop-color="hsl(0, 0%, 0%)" offset="90%"></stop></linearGradient><linearGradient gradientTransform="rotate(135, 0.5, 0.5)" x1="50%" y1="0%" x2="50%" y2="100%" id="uuunion-grad2"><stop stop-color="hsl(265, 93%, 36%)" offset="25%"></stop><stop stop-color="hsl(0, 0%, 0%)" offset="100%"></stop></linearGradient><linearGradient gradientTransform="rotate(333, 0.5, 0.5)" x1="50%" y1="0%" x2="50%" y2="100%" id="uuunion-grad3"><stop stop-color="hsl(265, 93%, 36%)" offset="0%"></stop><stop stop-color="hsl(0, 0%, 0%)" offset="75%"></stop></linearGradient></defs><path d="M-79.05 -88.78Q-64.39 -87.54 -49.73 -83.66 -35.06 -78.5 -20.4 -73.86 -5.74 -71.37 8.91 -71.89 23.57 -75.24 38.23 -80.25 52.89 -85.17 67.55 -88.29 82.21 -88.5 96.88 -85.75 111.54 -80.98 126.2 -75.87 140.86 -72.2 155.52 -71.25 170.18 -73.36 184.84 -77.78 199.5 -82.98 214.16 -87.13 228.83 -88.79 243.49 -87.38 258.15 -83.39 272.81 -78.21 287.47 -73.66 302.13 -71.32 316.79 -72.01 331.45 -75.49 346.12 -80.55 360.78 -85.41 375.44 -88.38 390.1 -88.42 404.76 -85.52 419.42 -80.69 434.08 -75.61 448.74 -72.07 463.4 -71.29 478.07 -73.56 492.73 -78.07 507.39 -83.26 522.05 -87.3 536.71 -88.79 551.37 -87.21 566.03 -83.11 580.69 -77.92 595.36 -73.45 610.02 -71.27 624.68 -72.14 639.34 -75.75 654 -80.84 668.66 -85.64 683.32 -88.47 697.98 -88.33 712.64 -85.29 727.31 -80.39 741.97 -75.36 756.63 -71.95 771.29 -71.34 785.95 -73.76 800.61 -78.36 815.27 -83.53 829.93 -87.46 844.59 -88.79 859.26 -87.04 856.13 -72.22 856.67 -57.4 860.81 -42.58 867.89 -27.76 876.83 -12.94 886.26 1.87 894.73 16.69 900.93 31.51 903.91 46.33 903.21 61.15 898.94 75.97 891.76 90.79 882.77 105.61 873.35 120.43 864.95 135.25 858.87 150.07 856.03 164.89 856.88 179.71 861.29 194.53 868.57 209.35 877.61 224.17 887.02 238.99 895.34 253.81 901.31 268.63 904 283.45 902.99 298.27 898.45 313.09 891.07 327.91 881.99 342.73 872.6 357.55 864.34 372.37 858.5 387.19 855.96 402.01 857.12 416.82 861.8 431.64 869.27 446.46 878.4 461.28 887.77 476.1 895.94 490.92 901.66 505.74 904.05 520.56 902.74 535.38 897.93 550.2 890.36 565.02 881.2 579.84 871.85 594.66 863.76 609.48 858.16 624.3 855.92 639.12 857.38 653.94 862.32 668.76 869.98 683.58 879.18 698.4 888.51 713.22 896.52 728.04 902 742.86 904.09 757.68 902.47 772.5 897.4 787.32 889.65 802.14 880.42 816.96 871.12 831.78 863.18 846.6 857.84 861.42 843.2 856.82 828.56 860.31 813.92 870.68 799.28 884.3 784.65 896.42 770.01 902.8 755.37 901.22 740.73 892.22 726.09 878.95 711.46 866.04 696.82 858.01 682.18 857.66 667.54 865.11 652.9 877.76 638.27 891.19 623.63 900.71 608.99 902.99 594.35 897.24 579.71 885.47 565.08 871.78 550.44 860.96 535.8 856.8 521.16 860.73 506.52 871.4 491.89 885.07 477.25 896.96 462.61 902.93 447.97 900.89 433.33 891.55 418.7 878.17 404.06 865.43 389.42 857.78 374.78 857.89 360.15 865.72 345.51 878.54 330.87 891.87 316.23 901.05 301.59 902.87 286.96 896.71 272.32 884.7 257.68 871.06 243.04 860.53 228.4 856.8 213.77 861.18 199.13 872.13 184.49 885.82 169.85 897.49 155.21 903.04 140.58 900.54 125.94 890.86 111.3 877.39 96.66 864.83 82.02 857.57 67.39 858.14 52.75 866.34 38.11 879.32 23.47 892.53 8.83 901.36 -5.79 902.73 -20.43 896.16 -35.07 883.94 -49.71 870.34 -64.35 860.12 -78.98 856.83 -79.23 842.06 -79.59 827.28 -80.01 812.51 -80.44 797.73 -80.79 782.96 -81.02 768.18 -81.09 753.41 -81 738.63 -80.75 723.86 -80.38 709.08 -79.96 694.31 -79.54 679.53 -79.19 664.75 -78.96 649.98 -78.9 635.2 -79 620.43 -79.25 605.65 -79.62 590.88 -80.05 576.1 -80.47 561.33 -80.81 546.55 -81.03 531.78 -81.09 517 -80.98 502.23 -80.72 487.45 -80.35 472.67 -79.92 457.9 -79.51 443.12 -79.16 428.35 -78.95 413.57 -78.9 398.8 -79.01 384.02 -79.28 369.25 -79.66 354.47 -80.09 339.7 -80.5 324.92 -80.84 310.15 -81.04 295.37 -81.09 280.59 -80.97 265.82 -80.7 251.04 -80.32 236.27 -79.89 221.49 -79.47 206.72 -79.14 191.94 -78.94 177.17 -78.9 162.39 -79.03 147.62 -79.31 132.84 -79.69 118.07 -80.12 103.29 -80.53 88.51 -80.86 73.74 -81.05 58.96 -81.09 44.19 -80.95 29.41 -80.67 14.64 -80.28 -0.13 -79.85 -14.9 -79.44 -29.68 -79.12 -44.45 -78.93 -59.23 -78.91 -74 -79.05 -88.78" fill="url(#uuunion-grad)"></path><path d="M-79.05 -88.78Q-78.91 -74 -78.93 -59.23 -79.12 -44.45 -79.44 -29.68 -79.85 -14.9 -80.28 -0.13 -80.67 14.64 -80.95 29.41 -81.09 44.19 -81.05 58.96 -80.86 73.74 -80.53 88.51 -80.12 103.29 -79.69 118.07 -79.31 132.84 -79.03 147.62 -78.9 162.39 -78.94 177.17 -79.14 191.94 -79.47 206.72 -79.89 221.49 -80.32 236.27 -80.7 251.04 -80.97 265.82 -81.09 280.59 -81.04 295.37 -80.84 310.15 -80.5 324.92 -80.09 339.7 -79.66 354.47 -79.28 369.25 -79.01 384.02 -69.25 384.92 -59.48 388.2 -49.72 393.34 -39.95 399.53 -30.18 405.79 -20.42 411.14 -2.11 415.65 1.05 415.94 13.34 407.06 25.73 394.99 38.23 381.17 50.85 367.45 63.59 355.65 76.45 347.09 89.43 342.29 102.52 340.85 115.68 341.57 128.91 342.73 142.17 342.52 155.42 339.52 168.65 332.95 181.8 322.95 194.85 310.46 207.77 297.03 220.52 284.42 233.08 274.14 245.43 267.15 257.56 263.58 269.46 262.74 281.13 263.28 292.58 263.54 303.83 261.95 314.91 257.4 325.86 249.52 336.7 238.75 347.49 226.23 358.28 213.5 369.12 202.12 380.06 193.33 391.17 187.7 402.48 185.04 414.04 184.43 425.91 184.48 438.1 183.66 450.65 180.66 463.57 174.73 476.87 165.83 490.54 154.66 504.55 142.43 518.88 130.62 533.5 120.55 548.34 113.13 563.35 108.59 578.45 106.49 593.59 105.77 608.67 105.08 623.63 103.07 638.39 98.73 652.86 91.65 666.99 82.07 680.71 70.83 693.98 59.17 706.75 48.41 719 39.62 730.71 33.38 741.9 29.65 752.57 27.76 762.77 26.65 772.54 25.04 781.95 21.82 791.07 16.3 800 8.34 790.22 -9.37 782.48 -27.09 778.39 -44.81 778.8 -62.53 783.63 -80.25 791.87 -97.97 801.8 -115.69 811.36 -133.4 796.25 -132.1 781.14 -133.51 766.03 -137.17 750.92 -141.8 735.81 -145.81 720.71 -147.81 705.6 -147.12 690.49 -143.96 675.38 -139.44 660.27 -135.11 645.16 -132.47 630.06 -132.42 614.95 -134.99 599.84 -139.28 584.73 -143.82 569.62 -147.04 554.51 -147.83 539.41 -145.92 524.3 -141.96 509.19 -137.32 494.08 -133.61 478.97 -132.1 463.86 -133.32 448.76 -136.84 433.65 -141.45 418.54 -145.56 403.43 -147.75 388.32 -147.26 373.21 -144.27 358.11 -139.8 343 -135.4 327.89 -132.58 312.78 -132.33 297.67 -134.72 282.56 -138.93 267.46 -143.51 252.35 -146.87 237.24 -147.87 222.13 -146.15 207.02 -142.3 191.91 -137.66 176.81 -133.82 161.7 -132.12 146.59 -133.13 131.48 -136.51 116.37 -141.1 101.27 -145.3 86.16 -147.67 71.05 -147.39 55.94 -144.56 40.83 -140.16 25.72 -135.69 10.62 -132.71 -4.48 -132.25 -19.59 -134.46 -34.7 -138.57 -49.81 -143.18 -64.92 -146.69 -80.02 -147.89 -95.13 -146.36 -110.24 -142.64 -125.35 -138 -134.6 -122.26 -116.49 -110.27 -106.96 -105.81 -97.55 -100.98 -88.25 -95.4 -79.05 -88.78" fill="url(#uuunion-grad2)" filter="url(#uuunion-blur)"></path><path d="M780.37 413.34Q790.14 408.85 799.9 402.97 809.67 396.61 819.44 390.79 829.2 386.42 838.97 384.19 848.73 384.46 858.5 387.19 855.96 402.01 857.12 416.82 861.8 431.64 869.27 446.46 878.4 461.28 887.77 476.1 895.94 490.92 901.66 505.74 904.05 520.56 902.74 535.38 897.93 550.2 890.36 565.02 881.2 579.84 871.85 594.66 863.76 609.48 858.16 624.3 855.92 639.12 857.38 653.94 862.32 668.76 869.98 683.58 879.18 698.4 888.51 713.22 896.52 728.04 902 742.86 904.09 757.68 902.47 772.5 897.4 787.32 889.65 802.14 880.42 816.96 871.12 831.78 863.18 846.6 857.84 861.42 844.4 856.89 830.97 859.19 817.54 867.64 804.1 879.74 790.67 891.92 777.24 900.57 763.8 903.14 750.37 898.86 736.94 889.01 723.5 876.5 710.07 865.01 696.64 857.96 683.2 857.42 669.77 863.55 656.34 874.55 642.9 887.15 629.47 897.64 616.03 902.91 602.6 901.41 589.17 893.58 575.73 881.73 562.3 869.37 548.87 860.15 535.43 856.8 522 860.3 508.57 869.62 495.13 882.02 481.7 893.81 468.27 901.52 454.83 902.87 441.4 897.45 427.97 886.88 414.53 874.27 401.1 863.35 387.67 857.35 374.23 858.05 360.8 865.23 347.37 876.78 333.93 889.28 320.5 899.03 307.07 903.16 293.63 900.44 280.2 891.67 266.77 879.46 253.33 867.4 239.9 859.07 226.47 856.92 213.03 861.59 199.6 871.71 186.17 884.27 172.73 895.57 159.3 902.26 145.87 902.38 132.43 895.87 119 884.68 105.57 872.1 92.13 861.85 78.7 856.97 65.27 858.89 51.83 867.05 38.4 879.04 24.97 891.31 4.88 896.63 -1.58 882.88 -1.35 872.73 -1.11 862.58 -0.85 852.43 -0.6 842.28 -0.04 827.06 0.8 822 13.68 812.97 26.58 799.28 39.46 782.78 52.31 766 65.09 751.5 77.78 741.27 90.36 736.26 102.81 736.11 115.11 739.29 127.26 743.47 139.26 746.1 151.12 745.04 162.84 739.04 174.44 728.09 185.95 713.38 197.4 697.01 208.82 681.46 220.25 668.99 231.73 661.08 243.3 658.11 255 659.22 266.88 662.58 278.95 665.84 291.25 666.66 303.81 663.36 316.64 655.25 329.75 642.83 343.13 627.64 356.78 611.9 370.67 597.92 384.77 587.56 399.06 581.8 413.48 580.47 427.97 582.32 442.49 585.35 456.98 587.29 471.36 586.16 485.59 580.72 499.6 570.84 513.33 557.44 526.73 542.3 539.78 527.6 552.42 515.4 564.64 507.12 576.44 503.22 587.8 503.07 598.76 505.16 609.34 507.42 619.57 507.78 629.51 504.66 639.23 497.32 648.8 486.07 658.29 472.19 667.79 457.55 677.38 444.2 687.16 433.87 697.2 427.51 707.59 425.11 718.39 425.67 729.67 427.52 741.49 428.66 753.86 427.3 773.6 417.81 780.37 413.34" fill="url(#uuunion-grad3)" filter="url(#uuunion-blur2)"></path></svg>